# Blender v2.78 (sub 6) OBJ File: ''
# www.blender.org
o mainCube_Cube.007
v -0.980000 -0.980000 0.980000
v -0.980000 0.980000 0.980000
v -0.980000 -0.980000 -0.980000
v -0.980000 0.980000 -0.980000
v 0.980000 -0.980000 0.980000
v 0.980000 0.980000 0.980000
v 0.980000 -0.980000 -0.980000
v 0.980000 0.980000 -0.980000
v -1.000000 -1.000000 1.000000
v -1.000000 1.000000 1.000000
v -1.000000 -1.000000 -1.000000
v -1.000000 1.000000 -1.000000
v 1.000000 -1.000000 1.000000
v 1.000000 1.000000 1.000000
v 1.000000 -1.000000 -1.000000
v 1.000000 1.000000 -1.000000
v -0.980000 0.980000 -1.000000
v -0.980000 -0.980000 -1.000000
v -0.980000 1.000000 -0.980000
v -0.980000 1.000000 0.980000
v -0.980000 0.980000 1.000000
v -0.980000 -0.980000 1.000000
v -1.000000 -0.980000 0.980000
v -1.000000 -0.980000 -0.980000
v -1.000000 0.980000 -0.980000
v -1.000000 0.980000 0.980000
v 0.980000 1.000000 -0.980000
v 0.980000 1.000000 0.980000
v -0.980000 -1.000000 -0.980000
v -0.980000 -1.000000 0.980000
v 0.980000 -1.000000 0.980000
v 0.980000 0.980000 -1.000000
v 0.980000 -0.980000 -1.000000
v 0.980000 -0.980000 1.000000
v 0.980000 -1.000000 -0.980000
v 0.980000 0.980000 1.000000
v 1.000000 0.980000 -0.980000
v 1.000000 0.980000 0.980000
v 1.000000 -0.980000 0.980000
v 1.000000 -0.980000 -0.980000
vn 0.0000 -1.0000 0.0000
vn -1.0000 0.0000 0.0000
vn 0.0000 1.0000 0.0000
vn 0.0000 0.0000 -1.0000
vn 1.0000 0.0000 0.0000
vn 0.0000 0.0000 1.0000
s off
f 26//1 4//1 2//1
f 32//2 7//2 8//2
f 37//1 6//1 8//1
f 22//3 5//3 1//3
f 31//4 1//4 5//4
f 28//2 8//2 6//2
f 33//3 3//3 7//3
f 17//1 8//1 4//1
f 18//5 4//5 3//5
f 40//6 8//6 7//6
f 38//4 5//4 6//4
f 39//3 7//3 5//3
f 19//5 2//5 4//5
f 20//4 6//4 2//4
f 27//6 4//6 8//6
f 36//1 2//1 6//1
f 34//2 6//2 5//2
f 21//5 1//5 2//5
f 24//3 1//3 3//3
f 25//6 3//6 4//6
f 23//4 2//4 1//4
f 29//6 7//6 3//6
f 30//5 3//5 1//5
f 35//2 5//2 7//2
f 12//2 26//2 10//2
f 18//4 15//4 11//4
f 37//5 15//5 16//5
f 22//6 10//6 9//6
f 15//1 29//1 11//1
f 12//3 27//3 16//3
f 31//1 9//1 30//1
f 21//6 14//6 10//6
f 13//5 38//5 14//5
f 18//4 12//4 17//4
f 11//2 23//2 24//2
f 19//3 10//3 20//3
f 9//6 34//6 22//6
f 36//6 13//6 14//6
f 14//5 37//5 16//5
f 13//5 40//5 39//5
f 30//1 11//1 29//1
f 35//1 13//1 31//1
f 20//3 14//3 28//3
f 28//3 16//3 27//3
f 16//4 17//4 12//4
f 15//4 32//4 16//4
f 10//2 23//2 9//2
f 11//2 25//2 12//2
f 26//1 25//1 4//1
f 32//2 33//2 7//2
f 37//1 38//1 6//1
f 22//3 34//3 5//3
f 31//4 30//4 1//4
f 28//2 27//2 8//2
f 33//3 18//3 3//3
f 17//1 32//1 8//1
f 18//5 17//5 4//5
f 40//6 37//6 8//6
f 38//4 39//4 5//4
f 39//3 40//3 7//3
f 19//5 20//5 2//5
f 20//4 28//4 6//4
f 27//6 19//6 4//6
f 36//1 21//1 2//1
f 34//2 36//2 6//2
f 21//5 22//5 1//5
f 24//3 23//3 1//3
f 25//6 24//6 3//6
f 23//4 26//4 2//4
f 29//6 35//6 7//6
f 30//5 29//5 3//5
f 35//2 31//2 5//2
f 12//2 25//2 26//2
f 18//4 33//4 15//4
f 37//5 40//5 15//5
f 22//6 21//6 10//6
f 15//1 35//1 29//1
f 12//3 19//3 27//3
f 31//1 13//1 9//1
f 21//6 36//6 14//6
f 13//5 39//5 38//5
f 18//4 11//4 12//4
f 11//2 9//2 23//2
f 19//3 12//3 10//3
f 9//6 13//6 34//6
f 36//6 34//6 13//6
f 14//5 38//5 37//5
f 13//5 15//5 40//5
f 30//1 9//1 11//1
f 35//1 15//1 13//1
f 20//3 10//3 14//3
f 28//3 14//3 16//3
f 16//4 32//4 17//4
f 15//4 33//4 32//4
f 10//2 26//2 23//2
f 11//2 24//2 25//2
