# Blender v2.78 (sub 6) OBJ File: ''
# www.blender.org
mtllib sample_cave.mtl
o Cube_Cube.008
v -8.104496 -0.362339 8.104496
v -8.104496 8.104496 8.104496
v -8.104496 -0.362339 -5.322260
v -9.526003 5.939272 -8.104496
v 8.104496 -0.362339 8.104496
v 8.104496 8.104496 8.104496
v 8.104496 -0.362339 -5.322260
v 4.968071 5.939272 -8.104496
v -4.665357 -0.362339 0.000000
v -8.104496 8.104496 0.000000
v 8.104496 -2.753878 0.000000
v 8.104496 8.104496 0.000000
v -8.104496 3.871078 6.028795
v -5.799860 3.871078 -8.104496
v 8.104496 3.871078 -8.104496
v 8.104496 3.871078 6.028795
v 10.536190 3.871078 0.000000
v -6.686047 3.871078 0.000000
v 0.000000 -0.362339 -6.622691
v 0.000000 5.939272 -8.104496
v 0.000000 -0.362339 9.632352
v 0.000000 8.104496 8.104496
v 0.000000 6.044474 0.000000
v 0.000000 -0.362339 0.000000
v 0.000000 3.871078 6.028795
v 0.000000 3.871078 -8.104496
vn 0.9196 0.3081 -0.2436
vn 0.0000 0.0000 1.0000
vn -0.8185 -0.4702 -0.3301
vn 0.0000 0.4402 -0.8979
vn 0.2723 0.9229 -0.2723
vn -0.2392 -0.9410 0.2392
vn 0.0000 -0.9661 0.2581
vn 0.0000 1.0000 0.0000
vn -0.5046 -0.7652 0.3997
vn 1.0000 0.0000 0.0000
vn 0.9041 0.1881 0.3837
vn -0.9412 0.1856 0.2824
vn 0.1421 -0.6416 -0.7538
vn -0.8779 0.3222 -0.3541
vn 0.0000 0.3304 0.9439
vn 0.7796 0.3721 -0.5038
vn 0.1381 0.4904 0.8605
vn 0.0000 -0.4402 -0.8979
vn 0.0000 -0.9999 0.0130
vn 0.2392 -0.9410 0.2392
vn 0.4846 0.8731 0.0530
vn -1.0000 0.0000 0.0000
vn 0.0000 -1.0000 0.0000
vn -0.2463 -0.9691 0.0126
vn 0.2599 0.8808 0.3958
vn -0.8392 -0.4820 0.2518
vn 0.9254 0.3101 0.2177
vn 0.8828 0.4214 0.2077
vn -0.9277 0.3405 0.1530
vn -0.1329 0.5443 0.8283
vn 0.8998 -0.4252 0.0984
vn -0.1421 -0.6416 -0.7538
vn 0.2431 -0.9565 0.1614
usemtl cave
s off
f 18//1 4//1 10//1
f 26//2 8//2 20//2
f 16//3 12//3 17//3
f 13//4 22//4 25//4
f 24//5 5//5 11//5
f 22//6 10//6 23//6
f 20//7 10//7 4//7
f 24//8 7//8 19//8
f 15//9 12//9 8//9
f 13//10 10//10 2//10
f 9//11 13//11 1//11
f 7//12 17//12 15//12
f 1//13 25//13 21//13
f 11//14 16//14 17//14
f 19//15 15//15 26//15
f 3//16 18//16 9//16
f 19//17 14//17 3//17
f 5//18 25//18 16//18
f 9//8 19//8 3//8
f 8//19 23//19 20//19
f 12//20 22//20 23//20
f 9//8 21//8 24//8
f 25//4 6//4 16//4
f 14//2 20//2 4//2
f 18//21 14//21 4//21
f 26//2 15//2 8//2
f 16//22 6//22 12//22
f 13//4 2//4 22//4
f 24//8 21//8 5//8
f 22//23 2//23 10//23
f 20//24 23//24 10//24
f 24//25 11//25 7//25
f 15//26 17//26 12//26
f 13//27 18//27 10//27
f 9//28 18//28 13//28
f 7//29 11//29 17//29
f 1//18 13//18 25//18
f 11//22 5//22 16//22
f 19//30 7//30 15//30
f 3//31 14//31 18//31
f 19//15 26//15 14//15
f 5//32 21//32 25//32
f 9//8 24//8 19//8
f 8//33 12//33 23//33
f 12//23 6//23 22//23
f 9//8 1//8 21//8
f 25//4 22//4 6//4
f 14//2 26//2 20//2
