# Blender v2.78 (sub 6) OBJ File: ''
# www.blender.org
mtllib spinner.mtl
o Cylinder
v 0.000000 -0.028692 -1.000000
v -0.000000 0.028692 -0.047582
v 0.195090 -0.028692 -0.980785
v 0.009283 0.028692 -0.046668
v 0.382683 -0.028692 -0.923880
v 0.018209 0.028692 -0.043960
v 0.555570 -0.028692 -0.831470
v 0.026435 0.028692 -0.039563
v 0.707107 -0.028692 -0.707107
v 0.033646 0.028692 -0.033646
v 0.831470 -0.028692 -0.555570
v 0.039563 0.028692 -0.026435
v 0.923880 -0.028692 -0.382683
v 0.043960 0.028692 -0.018209
v 0.980785 -0.028692 -0.195090
v 0.046668 0.028692 -0.009283
v 1.000000 -0.028692 -0.000000
v 0.047582 0.028692 0.000000
v 0.980785 -0.028692 0.195090
v 0.046668 0.028692 0.009283
v 0.923880 -0.028692 0.382683
v 0.043960 0.028692 0.018209
v 0.831470 -0.028692 0.555570
v 0.039563 0.028692 0.026435
v 0.707107 -0.028692 0.707107
v 0.033646 0.028692 0.033646
v 0.555570 -0.028692 0.831470
v 0.026435 0.028692 0.039563
v 0.382683 -0.028692 0.923880
v 0.018209 0.028692 0.043960
v 0.195090 -0.028692 0.980785
v 0.009283 0.028692 0.046668
v -0.000000 -0.028692 1.000000
v -0.000000 0.028692 0.047582
v -0.195091 -0.028692 0.980785
v -0.009283 0.028692 0.046668
v -0.382684 -0.028692 0.923879
v -0.018209 0.028692 0.043960
v -0.555571 -0.028692 0.831469
v -0.026435 0.028692 0.039563
v -0.707107 -0.028692 0.707106
v -0.033646 0.028692 0.033646
v -0.831470 -0.028692 0.555570
v -0.039563 0.028692 0.026435
v -0.923880 -0.028692 0.382683
v -0.043960 0.028692 0.018209
v -0.980785 -0.028692 0.195089
v -0.046668 0.028692 0.009283
v -1.000000 -0.028692 -0.000001
v -0.047582 0.028692 -0.000000
v -0.980785 -0.028692 -0.195091
v -0.046668 0.028692 -0.009283
v -0.923879 -0.028692 -0.382684
v -0.043960 0.028692 -0.018209
v -0.831469 -0.028692 -0.555571
v -0.039563 0.028692 -0.026435
v -0.707106 -0.028692 -0.707108
v -0.033646 0.028692 -0.033646
v -0.555569 -0.028692 -0.831470
v -0.026435 0.028692 -0.039563
v -0.382682 -0.028692 -0.923880
v -0.018209 0.028692 -0.043960
v -0.195089 -0.028692 -0.980786
v -0.009282 0.028692 -0.046668
v 0.195090 0.028692 -0.980785
v 0.000000 0.028692 -1.000000
v 0.382683 0.028692 -0.923880
v 0.555570 0.028692 -0.831470
v 0.707107 0.028692 -0.707107
v 0.831470 0.028692 -0.555570
v 0.923880 0.028692 -0.382683
v 0.980785 0.028692 -0.195090
v 1.000000 0.028692 -0.000000
v 0.980785 0.028692 0.195090
v 0.923880 0.028692 0.382683
v 0.831470 0.028692 0.555570
v 0.707107 0.028692 0.707107
v 0.555570 0.028692 0.831470
v 0.382683 0.028692 0.923880
v 0.195090 0.028692 0.980785
v -0.000000 0.028692 1.000000
v -0.195091 0.028692 0.980785
v -0.382684 0.028692 0.923879
v -0.555571 0.028692 0.831469
v -0.707107 0.028692 0.707106
v -0.831470 0.028692 0.555570
v -0.923880 0.028692 0.382683
v -0.980785 0.028692 0.195089
v -1.000000 0.028692 -0.000001
v -0.980785 0.028692 -0.195091
v -0.923879 0.028692 -0.382684
v -0.831469 0.028692 -0.555571
v -0.707106 0.028692 -0.707108
v -0.555569 0.028692 -0.831470
v -0.382682 0.028692 -0.923880
v -0.195089 0.028692 -0.980786
v 0.009283 0.763756 -0.046668
v -0.000000 0.763756 -0.047582
v 0.018209 0.763756 -0.043960
v 0.026435 0.763756 -0.039563
v 0.033646 0.763756 -0.033646
v 0.039563 0.763756 -0.026435
v 0.043960 0.763756 -0.018209
v 0.046668 0.763756 -0.009283
v 0.047582 0.763756 0.000000
v 0.046668 0.763756 0.009283
v 0.043960 0.763756 0.018209
v 0.039563 0.763756 0.026435
v 0.033646 0.763756 0.033646
v 0.026435 0.763756 0.039563
v 0.018209 0.763756 0.043960
v 0.009283 0.763756 0.046668
v -0.000000 0.763756 0.047582
v -0.009283 0.763756 0.046668
v -0.018209 0.763756 0.043960
v -0.026435 0.763756 0.039563
v -0.033646 0.763756 0.033646
v -0.039563 0.763756 0.026435
v -0.043960 0.763756 0.018209
v -0.046668 0.763756 0.009283
v -0.047582 0.763756 -0.000000
v -0.046668 0.763756 -0.009283
v -0.043960 0.763756 -0.018209
v -0.039563 0.763756 -0.026435
v -0.033646 0.763756 -0.033646
v -0.026435 0.763756 -0.039563
v -0.018209 0.763756 -0.043960
v -0.009282 0.763756 -0.046668
v 0.047059 0.833887 -0.046668
v 0.047059 0.843170 -0.047582
v 0.047059 0.824961 -0.043960
v 0.047059 0.816734 -0.039563
v 0.047059 0.809524 -0.033646
v 0.047059 0.803606 -0.026435
v 0.047059 0.799209 -0.018209
v 0.047059 0.796502 -0.009283
v 0.047059 0.795587 0.000000
v 0.047059 0.796502 0.009283
v 0.047059 0.799209 0.018209
v 0.047059 0.803606 0.026435
v 0.047059 0.809524 0.033646
v 0.047059 0.816734 0.039563
v 0.047059 0.824961 0.043960
v 0.047060 0.833887 0.046668
v 0.047060 0.843170 0.047582
v 0.047060 0.852452 0.046668
v 0.047060 0.861379 0.043960
v 0.047060 0.869605 0.039563
v 0.047060 0.876815 0.033646
v 0.047060 0.882733 0.026435
v 0.047060 0.887130 0.018209
v 0.047059 0.889838 0.009283
v 0.047059 0.890752 -0.000000
v 0.047059 0.889838 -0.009283
v 0.047059 0.887130 -0.018209
v 0.047059 0.882733 -0.026435
v 0.047059 0.876815 -0.033646
v 0.047059 0.869605 -0.039563
v 0.047059 0.861379 -0.043960
v 0.047059 0.852452 -0.046668
v 0.785310 0.833887 -0.046668
v 0.785310 0.843170 -0.047582
v 0.785310 0.824961 -0.043960
v 0.785310 0.816734 -0.039563
v 0.785310 0.809524 -0.033646
v 0.785310 0.803606 -0.026435
v 0.785310 0.799209 -0.018209
v 0.785310 0.796502 -0.009283
v 0.785310 0.795587 0.000000
v 0.785310 0.796502 0.009283
v 0.785310 0.799209 0.018209
v 0.785310 0.803606 0.026435
v 0.785310 0.809524 0.033646
v 0.785310 0.816734 0.039563
v 0.785310 0.824961 0.043960
v 0.785310 0.833887 0.046668
v 0.785310 0.843170 0.047582
v 0.785310 0.852452 0.046668
v 0.785310 0.861379 0.043960
v 0.785310 0.869605 0.039563
v 0.785310 0.876815 0.033646
v 0.785310 0.882733 0.026435
v 0.785310 0.887130 0.018209
v 0.785310 0.889838 0.009283
v 0.785310 0.890752 -0.000000
v 0.785310 0.889838 -0.009283
v 0.785310 0.887130 -0.018209
v 0.785310 0.882733 -0.026435
v 0.785310 0.876815 -0.033646
v 0.785310 0.869605 -0.039563
v 0.785310 0.861378 -0.043960
v 0.785310 0.852452 -0.046668
vn 0.0980 0.0000 -0.9952
vn 0.2903 0.0000 -0.9569
vn 0.4714 0.0000 -0.8819
vn 0.6344 0.0000 -0.7730
vn 0.7730 0.0000 -0.6344
vn 0.8819 0.0000 -0.4714
vn 0.9569 0.0000 -0.2903
vn 0.9952 0.0000 -0.0980
vn 0.9952 0.0000 0.0980
vn 0.9569 0.0000 0.2903
vn 0.8819 0.0000 0.4714
vn 0.7730 0.0000 0.6344
vn 0.6344 0.0000 0.7730
vn 0.4714 0.0000 0.8819
vn 0.2903 0.0000 0.9569
vn 0.0980 0.0000 0.9952
vn -0.0980 0.0000 0.9952
vn -0.2903 0.0000 0.9569
vn -0.4714 0.0000 0.8819
vn -0.6344 0.0000 0.7730
vn -0.7730 0.0000 0.6344
vn -0.8819 0.0000 0.4714
vn -0.9569 0.0000 0.2903
vn -0.9952 0.0000 0.0980
vn -0.9952 0.0000 -0.0980
vn -0.9569 0.0000 -0.2903
vn -0.8819 0.0000 -0.4714
vn -0.7730 0.0000 -0.6344
vn -0.6344 0.0000 -0.7730
vn -0.4714 0.0000 -0.8819
vn -0.2903 0.0000 -0.9569
vn -0.0980 0.0000 -0.9952
vn 0.0000 -1.0000 0.0000
vn -0.0000 1.0000 -0.0000
vn -0.7421 0.5403 -0.3967
vn -0.0000 -0.4714 -0.8819
vn 0.7071 -0.3333 0.6236
vn 0.0979 -0.0527 -0.9938
vn -0.6768 0.4831 -0.5554
vn 0.4744 -0.2555 0.8424
vn 0.2876 -0.1356 -0.9481
vn -0.5806 0.4031 -0.7074
vn 0.1632 -0.0967 0.9818
vn 0.4637 -0.1805 -0.8674
vn -0.4496 0.3006 -0.8411
vn -0.1525 0.0969 0.9835
vn 0.6237 -0.1828 -0.7600
vn -0.2855 0.1814 -0.9411
vn -0.3983 0.2663 0.8778
vn 0.7650 -0.1439 -0.6278
vn -0.0979 0.0580 -0.9935
vn -0.5617 0.3900 0.7297
vn 0.8793 -0.0769 -0.4700
vn -0.6643 0.4742 0.5778
vn 0.9569 -0.0114 -0.2903
vn -0.7280 0.5300 0.4350
vn 0.9951 0.0163 -0.0980
vn -0.7670 0.5659 0.3024
vn 0.9999 -0.0120 0.0012
vn -0.7897 0.5871 0.1781
vn 0.9959 -0.0871 0.0264
vn -0.8004 0.5965 0.0588
vn 0.9780 -0.1840 0.0983
vn -0.8000 0.5947 -0.0788
vn 0.9351 -0.2740 0.2249
vn -0.7818 0.5767 -0.2371
vn 0.8523 -0.3318 0.4043
vn 1.0000 0.0000 0.0000
vn -0.0000 0.4714 -0.8819
vn 0.0000 0.0980 0.9952
vn -0.0000 -0.6344 -0.7730
vn -0.0000 0.2903 -0.9569
vn 0.0000 0.2903 0.9569
vn -0.0000 -0.7730 -0.6344
vn -0.0000 0.0980 -0.9952
vn 0.0000 0.4714 0.8819
vn -0.0000 -0.8819 -0.4714
vn 0.0000 0.6344 0.7730
vn -0.0000 -0.9569 -0.2903
vn 0.0000 0.7730 0.6344
vn -0.0000 -0.9952 -0.0980
vn 0.0000 0.8819 0.4714
vn -0.0000 -0.9952 0.0980
vn 0.0000 0.9569 0.2903
vn -0.0000 -0.9569 0.2903
vn 0.0000 0.9952 0.0980
vn -0.0000 -0.8819 0.4714
vn 0.0000 0.9952 -0.0980
vn -0.0000 -0.7730 0.6344
vn 0.0000 0.9569 -0.2903
vn 0.0000 -0.6344 0.7730
vn 0.0000 0.8819 -0.4714
vn 0.0000 -0.4714 0.8819
vn -0.0000 -0.0980 -0.9952
vn 0.0000 0.7730 -0.6344
vn 0.0000 -0.2903 0.9569
vn -0.0000 -0.2903 -0.9569
vn -0.0000 0.6344 -0.7730
vn 0.0000 -0.0980 0.9952
vn -0.7670 0.5659 -0.3025
vn 0.4636 -0.1805 0.8674
vn 0.1632 -0.0967 -0.9818
vn -0.7279 0.5300 -0.4350
vn 0.2876 -0.1356 0.9481
vn 0.4744 -0.2555 -0.8424
vn -0.6643 0.4742 -0.5778
vn 0.0979 -0.0527 0.9938
vn 0.7071 -0.3333 -0.6236
vn -0.5617 0.3900 -0.7297
vn -0.0979 0.0580 0.9935
vn 0.8523 -0.3318 -0.4043
vn -0.3983 0.2663 -0.8778
vn -0.2855 0.1813 0.9411
vn 0.9350 -0.2740 -0.2249
vn -0.1525 0.0969 -0.9835
vn -0.4496 0.3006 0.8411
vn 0.9780 -0.1840 -0.0983
vn -0.5806 0.4031 0.7074
vn 0.9959 -0.0871 -0.0264
vn -0.6768 0.4831 0.5554
vn 0.9999 -0.0120 -0.0012
vn -0.7421 0.5403 0.3966
vn 0.9951 0.0163 0.0980
vn -0.7817 0.5767 0.2372
vn 0.9569 -0.0114 0.2903
vn -0.8000 0.5947 0.0788
vn 0.8793 -0.0769 0.4700
vn -0.8004 0.5965 -0.0588
vn 0.7650 -0.1439 0.6278
vn -0.7897 0.5871 -0.1781
vn 0.6237 -0.1828 0.7600
vn 1.0000 0.0001 0.0000
vn 1.0000 -0.0001 0.0000
usemtl Material.001
s off
f 66//1 3//1 1//1
f 65//2 5//2 3//2
f 67//3 7//3 5//3
f 68//4 9//4 7//4
f 69//5 11//5 9//5
f 70//6 13//6 11//6
f 71//7 15//7 13//7
f 72//8 17//8 15//8
f 73//9 19//9 17//9
f 74//10 21//10 19//10
f 75//11 23//11 21//11
f 76//12 25//12 23//12
f 77//13 27//13 25//13
f 78//14 29//14 27//14
f 79//15 31//15 29//15
f 80//16 33//16 31//16
f 81//17 35//17 33//17
f 82//18 37//18 35//18
f 83//19 39//19 37//19
f 84//20 41//20 39//20
f 85//21 43//21 41//21
f 86//22 45//22 43//22
f 87//23 47//23 45//23
f 88//24 49//24 47//24
f 89//25 51//25 49//25
f 90//26 53//26 51//26
f 91//27 55//27 53//27
f 92//28 57//28 55//28
f 93//29 59//29 57//29
f 94//30 61//30 59//30
f 48//24 121//24 50//24
f 95//31 63//31 61//31
f 96//32 1//32 63//32
f 31//33 47//33 15//33
f 12//34 69//34 10//34
f 12//34 71//34 70//34
f 14//34 72//34 71//34
f 18//34 72//34 16//34
f 20//34 73//34 18//34
f 22//34 74//34 20//34
f 24//34 75//34 22//34
f 123//35 156//35 124//35
f 22//11 108//11 24//11
f 50//25 122//25 52//25
f 24//12 109//12 26//12
f 52//26 123//26 54//26
f 26//13 110//13 28//13
f 54//27 124//27 56//27
f 28//14 111//14 30//14
f 2//1 97//1 4//1
f 56//28 125//28 58//28
f 30//15 112//15 32//15
f 4//2 99//2 6//2
f 58//29 126//29 60//29
f 32//16 113//16 34//16
f 6//3 100//3 8//3
f 60//30 127//30 62//30
f 34//17 114//17 36//17
f 8//4 101//4 10//4
f 62//31 128//31 64//31
f 36//18 115//18 38//18
f 10//5 102//5 12//5
f 64//32 98//32 2//32
f 38//19 116//19 40//19
f 12//6 103//6 14//6
f 40//20 117//20 42//20
f 14//7 104//7 16//7
f 42//21 118//21 44//21
f 16//8 105//8 18//8
f 44//22 119//22 46//22
f 18//9 106//9 20//9
f 46//23 120//23 48//23
f 20//10 107//10 22//10
f 131//36 164//36 132//36
f 111//37 142//37 143//37
f 98//38 129//38 97//38
f 124//39 157//39 125//39
f 112//40 143//40 144//40
f 97//41 131//41 99//41
f 125//42 158//42 126//42
f 113//43 144//43 145//43
f 99//44 132//44 100//44
f 126//45 159//45 127//45
f 114//46 145//46 146//46
f 100//47 133//47 101//47
f 127//48 160//48 128//48
f 115//49 146//49 147//49
f 101//50 134//50 102//50
f 128//51 130//51 98//51
f 116//52 147//52 148//52
f 102//53 135//53 103//53
f 117//54 148//54 149//54
f 103//55 136//55 104//55
f 118//56 149//56 150//56
f 104//57 137//57 105//57
f 119//58 150//58 151//58
f 106//59 137//59 138//59
f 120//60 151//60 152//60
f 107//61 138//61 139//61
f 121//62 152//62 153//62
f 108//63 139//63 140//63
f 121//64 154//64 122//64
f 109//65 140//65 141//65
f 122//66 155//66 123//66
f 110//67 141//67 142//67
f 179//68 171//68 163//68
f 158//69 191//69 159//69
f 145//70 178//70 146//70
f 132//71 165//71 133//71
f 159//72 192//72 160//72
f 146//73 179//73 147//73
f 134//74 165//74 166//74
f 160//75 162//75 130//75
f 147//76 180//76 148//76
f 134//77 167//77 135//77
f 148//78 181//78 149//78
f 135//79 168//79 136//79
f 149//80 182//80 150//80
f 136//81 169//81 137//81
f 150//82 183//82 151//82
f 137//83 170//83 138//83
f 151//84 184//84 152//84
f 138//85 171//85 139//85
f 152//86 185//86 153//86
f 139//87 172//87 140//87
f 153//88 186//88 154//88
f 140//89 173//89 141//89
f 154//90 187//90 155//90
f 141//91 174//91 142//91
f 155//92 188//92 156//92
f 142//93 175//93 143//93
f 130//94 161//94 129//94
f 156//95 189//95 157//95
f 143//96 176//96 144//96
f 129//97 163//97 131//97
f 157//98 190//98 158//98
f 144//99 177//99 145//99
f 66//1 65//1 3//1
f 65//2 67//2 5//2
f 67//3 68//3 7//3
f 68//4 69//4 9//4
f 69//5 70//5 11//5
f 70//6 71//6 13//6
f 71//7 72//7 15//7
f 72//8 73//8 17//8
f 73//9 74//9 19//9
f 74//10 75//10 21//10
f 75//11 76//11 23//11
f 76//12 77//12 25//12
f 77//13 78//13 27//13
f 78//14 79//14 29//14
f 79//15 80//15 31//15
f 80//16 81//16 33//16
f 81//17 82//17 35//17
f 82//18 83//18 37//18
f 83//19 84//19 39//19
f 84//20 85//20 41//20
f 85//21 86//21 43//21
f 86//22 87//22 45//22
f 87//23 88//23 47//23
f 88//24 89//24 49//24
f 89//25 90//25 51//25
f 90//26 91//26 53//26
f 91//27 92//27 55//27
f 92//28 93//28 57//28
f 93//29 94//29 59//29
f 94//30 95//30 61//30
f 48//24 120//24 121//24
f 95//31 96//31 63//31
f 96//32 66//32 1//32
f 63//33 1//33 3//33
f 3//33 5//33 7//33
f 7//33 9//33 11//33
f 11//33 13//33 7//33
f 15//33 17//33 19//33
f 19//33 21//33 15//33
f 23//33 25//33 31//33
f 27//33 29//33 31//33
f 31//33 33//33 35//33
f 35//33 37//33 39//33
f 39//33 41//33 43//33
f 43//33 45//33 47//33
f 47//33 49//33 51//33
f 51//33 53//33 55//33
f 55//33 57//33 63//33
f 59//33 61//33 63//33
f 63//33 3//33 15//33
f 7//33 13//33 15//33
f 15//33 21//33 23//33
f 25//33 27//33 31//33
f 31//33 35//33 47//33
f 39//33 43//33 47//33
f 47//33 51//33 63//33
f 57//33 59//33 63//33
f 3//33 7//33 15//33
f 15//33 23//33 31//33
f 35//33 39//33 47//33
f 51//33 55//33 63//33
f 63//33 15//33 47//33
f 12//34 70//34 69//34
f 12//34 14//34 71//34
f 14//34 16//34 72//34
f 18//34 73//34 72//34
f 20//34 74//34 73//34
f 22//34 75//34 74//34
f 24//34 76//34 75//34
f 123//100 155//100 156//100
f 22//11 107//11 108//11
f 50//25 121//25 122//25
f 24//12 108//12 109//12
f 52//26 122//26 123//26
f 26//13 109//13 110//13
f 54//27 123//27 124//27
f 28//14 110//14 111//14
f 2//1 98//1 97//1
f 56//28 124//28 125//28
f 30//15 111//15 112//15
f 4//2 97//2 99//2
f 58//29 125//29 126//29
f 32//16 112//16 113//16
f 6//3 99//3 100//3
f 60//30 126//30 127//30
f 34//17 113//17 114//17
f 8//4 100//4 101//4
f 62//31 127//31 128//31
f 36//18 114//18 115//18
f 10//5 101//5 102//5
f 64//32 128//32 98//32
f 38//19 115//19 116//19
f 12//6 102//6 103//6
f 40//20 116//20 117//20
f 14//7 103//7 104//7
f 42//21 117//21 118//21
f 16//8 104//8 105//8
f 44//22 118//22 119//22
f 18//9 105//9 106//9
f 46//23 119//23 120//23
f 20//10 106//10 107//10
f 131//36 163//36 164//36
f 111//101 110//101 142//101
f 98//102 130//102 129//102
f 124//103 156//103 157//103
f 112//104 111//104 143//104
f 97//105 129//105 131//105
f 125//106 157//106 158//106
f 113//107 112//107 144//107
f 99//108 131//108 132//108
f 126//109 158//109 159//109
f 114//110 113//110 145//110
f 100//111 132//111 133//111
f 127//112 159//112 160//112
f 115//113 114//113 146//113
f 101//114 133//114 134//114
f 128//115 160//115 130//115
f 116//116 115//116 147//116
f 102//117 134//117 135//117
f 117//118 116//118 148//118
f 103//119 135//119 136//119
f 118//120 117//120 149//120
f 104//121 136//121 137//121
f 119//122 118//122 150//122
f 106//123 105//123 137//123
f 120//124 119//124 151//124
f 107//125 106//125 138//125
f 121//126 120//126 152//126
f 108//127 107//127 139//127
f 121//128 153//128 154//128
f 109//129 108//129 140//129
f 122//130 154//130 155//130
f 110//131 109//131 141//131
f 163//68 161//68 191//68
f 162//68 192//68 191//68
f 191//68 190//68 189//68
f 189//68 188//68 187//68
f 187//68 186//68 183//68
f 185//68 184//68 183//68
f 183//132 182//132 181//132
f 181//68 180//68 183//68
f 179//68 178//68 177//68
f 177//68 176//68 175//68
f 175//132 174//132 173//132
f 173//68 172//68 175//68
f 171//132 170//132 169//132
f 169//133 168//133 167//133
f 167//133 166//133 165//133
f 165//133 164//133 163//133
f 161//68 162//68 191//68
f 191//68 189//68 187//68
f 186//68 185//68 183//68
f 183//68 180//68 179//68
f 179//68 177//68 175//68
f 175//68 172//68 171//68
f 171//68 169//68 163//68
f 167//68 165//68 163//68
f 163//68 191//68 179//68
f 187//68 183//68 179//68
f 179//68 175//68 171//68
f 169//68 167//68 163//68
f 191//68 187//68 179//68
f 158//69 190//69 191//69
f 145//70 177//70 178//70
f 132//71 164//71 165//71
f 159//72 191//72 192//72
f 146//73 178//73 179//73
f 134//74 133//74 165//74
f 160//75 192//75 162//75
f 147//76 179//76 180//76
f 134//77 166//77 167//77
f 148//78 180//78 181//78
f 135//79 167//79 168//79
f 149//80 181//80 182//80
f 136//81 168//81 169//81
f 150//82 182//82 183//82
f 137//83 169//83 170//83
f 151//84 183//84 184//84
f 138//85 170//85 171//85
f 152//86 184//86 185//86
f 139//87 171//87 172//87
f 153//88 185//88 186//88
f 140//89 172//89 173//89
f 154//90 186//90 187//90
f 141//91 173//91 174//91
f 155//92 187//92 188//92
f 142//93 174//93 175//93
f 130//94 162//94 161//94
f 156//95 188//95 189//95
f 143//96 175//96 176//96
f 129//97 161//97 163//97
f 157//98 189//98 190//98
f 144//99 176//99 177//99
usemtl Material.002
f 26//34 76//34 24//34
f 26//34 78//34 77//34
f 28//34 79//34 78//34
f 32//34 79//34 30//34
f 32//34 81//34 80//34
f 34//34 82//34 81//34
f 38//34 82//34 36//34
f 40//34 83//34 38//34
f 42//34 84//34 40//34
f 26//34 77//34 76//34
f 26//34 28//34 78//34
f 28//34 30//34 79//34
f 32//34 80//34 79//34
f 32//34 34//34 81//34
f 34//34 36//34 82//34
f 38//34 83//34 82//34
f 40//34 84//34 83//34
f 42//34 85//34 84//34
usemtl Material.003
f 44//34 85//34 42//34
f 44//34 87//34 86//34
f 48//34 87//34 46//34
f 48//34 89//34 88//34
f 52//34 89//34 50//34
f 54//34 90//34 52//34
f 56//34 91//34 54//34
f 58//34 92//34 56//34
f 44//34 86//34 85//34
f 44//34 46//34 87//34
f 48//34 88//34 87//34
f 48//34 50//34 89//34
f 52//34 90//34 89//34
f 54//34 91//34 90//34
f 56//34 92//34 91//34
f 58//34 93//34 92//34
usemtl Material.004
f 4//34 66//34 2//34
f 4//34 67//34 65//34
f 6//34 68//34 67//34
f 8//34 69//34 68//34
f 60//34 93//34 58//34
f 60//34 95//34 94//34
f 64//34 95//34 62//34
f 2//34 96//34 64//34
f 4//34 65//34 66//34
f 4//34 6//34 67//34
f 6//34 8//34 68//34
f 8//34 10//34 69//34
f 60//34 94//34 93//34
f 60//34 62//34 95//34
f 64//34 96//34 95//34
f 2//34 66//34 96//34
